<svg width="128" height="128" viewBox="0 0 128 128" fill="none" xmlns="http://www.w3.org/2000/svg">
<path d="M117.639 30.8982C117.573 27.6584 117.511 24.5978 117.511 21.6368C117.511 19.3172 115.505 17.4365 113.03 17.4365C93.8694 17.4365 79.2809 12.2741 67.1207 1.1898C65.3811 -0.39623 62.6128 -0.39567 60.8739 1.1898C48.7149 12.2741 34.1287 17.4365 14.969 17.4365C12.4947 17.4365 10.4887 19.3172 10.4887 21.6368C10.4887 24.5983 10.4266 27.6601 10.3603 30.9005C9.74616 61.0507 8.90506 102.343 62.5298 119.769C63.0053 119.923 63.5011 120 63.997 120C64.4928 120 64.9892 119.923 65.4641 119.769C119.093 102.342 118.253 61.0491 117.639 30.8982ZM63.9976 111.343C18.0073 95.6802 18.7026 61.3694 19.3197 31.0606C19.3568 29.2416 19.3926 27.4786 19.4177 25.7503C37.3629 25.0402 51.7131 19.9422 63.9976 9.90962C76.2832 19.9422 90.6358 25.0408 108.582 25.7503C108.607 27.4781 108.643 29.2399 108.68 31.0578C109.297 61.3677 109.991 95.6797 63.9976 111.343Z" fill="white"/>
<path d="M79.426 45.4094L57.8015 65.6812L48.5738 57.0303C46.8241 55.3905 43.9872 55.3905 42.2381 57.0303C40.4884 58.6712 40.4884 61.3302 42.2381 62.9706L54.6336 74.5914C55.5082 75.4113 56.6552 75.8213 57.8015 75.8213C58.9479 75.8213 60.0949 75.4113 60.9694 74.5914L85.7612 51.3498C87.5115 49.7094 87.5115 47.0498 85.7618 45.41C84.0126 43.7696 81.1757 43.7691 79.426 45.4094Z" fill="white"/>
</svg>
