<svg width="128" height="128" viewBox="0 0 128 128" fill="none" xmlns="http://www.w3.org/2000/svg">
<path d="M121.705 65.0528H108.816L105.211 41.6144C107.534 43.1565 110.319 44.0567 113.311 44.0567C121.411 44.0567 128 37.4637 128 29.3662C128 21.2687 121.411 14.6775 113.311 14.6775C105.211 14.6775 98.6225 21.2664 98.6225 29.3662C98.6225 31.0682 98.9287 32.6963 99.4641 34.2178L91.436 27.3437C89.8034 25.9462 87.7241 25.1847 85.5771 25.1847H56.6554C53.1848 25.1847 50.3601 28.0089 50.3601 31.48C50.3601 34.9511 53.1843 37.7753 56.6554 37.7753H82.6352L60.7975 54.9252C56.8318 58.0413 54.5568 62.7183 54.5568 67.7629C54.5568 73.3446 57.3605 78.477 62.0585 81.4986L81.5313 94.0153L65.116 100.856C63.4668 101.542 62.17 102.898 61.5572 104.572C60.9443 106.251 61.0598 108.125 61.8781 109.715C63.0111 111.914 65.2565 113.194 67.5919 113.194C68.4586 113.194 69.3378 113.018 70.1749 112.647L92.8035 102.659C96.3373 101.013 98.6221 97.4273 98.6221 93.5242C98.6221 90.8679 97.5455 88.2697 95.6676 86.3963L82.8066 73.5336L94.9308 62.922L95.8668 70.4067C96.3807 74.53 99.8997 77.6439 104.053 77.6439H121.704C125.174 77.6439 127.999 74.8196 127.999 71.3486C128 67.8771 125.176 65.0528 121.705 65.0528ZM113.311 18.872C119.096 18.872 123.803 23.5786 123.803 29.364C123.803 35.1494 119.097 39.856 113.311 39.856C107.526 39.856 102.819 35.1494 102.819 29.364C102.819 23.5786 107.526 18.872 113.311 18.872ZM121.705 73.4463H104.053C102.014 73.4463 100.285 71.9122 100.031 69.8875L98.1149 54.5653L76.6653 73.329L92.701 89.3647C93.7987 90.4578 94.4258 91.9731 94.4258 93.5256C94.4258 95.8023 93.0914 97.8964 91.0685 98.8405L68.4774 108.81C67.403 109.29 66.1438 108.841 65.6066 107.798C65.3192 107.238 65.2812 106.609 65.4956 106.017C65.7118 105.429 66.1483 104.972 66.7275 104.731L84.5614 97.3006C85.7302 96.8158 86.5257 95.7311 86.6367 94.4701C86.7477 93.2091 86.1564 92.0004 85.0923 91.3182L64.3272 77.968C60.8378 75.7208 58.754 71.9059 58.754 67.7575C58.754 64.0098 60.4452 60.5307 63.3912 58.2141L89.1883 37.9544L84.8027 33.5773H56.6554C55.4991 33.5773 54.5568 32.6372 54.5568 31.4787C54.5568 30.3202 55.4991 29.3801 56.6554 29.3801H85.5771C86.7227 29.3801 87.8328 29.783 88.7035 30.5279L100.863 40.9568L105.216 69.2491H121.704C122.861 69.2491 123.803 70.1892 123.803 71.3477C123.803 72.5062 122.861 73.4463 121.705 73.4463Z" fill="white"/>
<path d="M30.8837 108.063C29.8304 109.261 28.0573 109.466 26.7627 108.543C26.0536 108.037 25.6001 107.282 25.4891 106.419C25.3781 105.555 25.6234 104.713 26.1816 104.044L54.0729 70.5751L50.8498 67.887L22.9563 101.358C21.6617 102.911 21.0677 104.952 21.326 106.958C21.5843 108.964 22.6774 110.788 24.3243 111.963C25.6086 112.878 27.0877 113.322 28.5586 113.322C30.5901 113.322 32.6023 112.471 34.0397 110.83L58.2338 83.2069L55.0756 80.4413L30.8837 108.063Z" fill="white"/>
<path d="M62.9507 41.9707H16.7869V46.1674H62.9507V41.9707Z" fill="white"/>
<path d="M12.5901 41.9707H4.19666V46.1674H12.5901V41.9707Z" fill="white"/>
<path d="M52.4591 50.364H20.9835V54.5607H52.4591V50.364Z" fill="white"/>
<path d="M16.7869 50.364H8.39343V54.5607H16.7869V50.364Z" fill="white"/>
<path d="M50.361 58.7576H23.0822V62.9543H50.361V58.7576Z" fill="white"/>
<path d="M18.8854 58.7576H12.5901V62.9543H18.8854V58.7576Z" fill="white"/>
<path d="M48.2624 33.5774H12.5901V37.7741H48.2624V33.5774Z" fill="white"/>
<path d="M8.39343 33.5774H0V37.7741H8.39343V33.5774Z" fill="white"/>
<path d="M48.2624 37.7739H4.19666V41.9706H48.2624V37.7739Z" fill="#AD00FF"/>
<path d="M62.9507 46.1675H8.39343V50.3642H62.9507V46.1675Z" fill="#AD00FF"/>
<path d="M52.4591 54.5608H12.5901V58.7575H52.4591V54.5608Z" fill="#AD00FF"/>
<path d="M50.3606 62.9543H16.7869V67.1511H50.3606V62.9543Z" fill="#AD00FF"/>
</svg>
