<svg width="128" height="128" viewBox="0 0 128 128" fill="none" xmlns="http://www.w3.org/2000/svg">
<path d="M107.739 92.2412C102.141 92.2412 97.6105 97.1073 97.6105 103.121C97.6105 109.134 102.141 114 107.739 114C113.337 114 117.867 109.134 117.867 103.121C117.867 97.1073 113.337 92.2412 107.739 92.2412ZM107.739 107.288C105.612 107.288 103.859 105.405 103.859 103.121C103.859 100.836 105.612 98.9533 107.739 98.9533C109.865 98.9533 111.618 100.836 111.618 103.121C111.618 105.405 109.865 107.288 107.739 107.288ZM126.123 92.8632H123.933V82.9785C123.933 79.4971 121.514 76.3889 118.236 76.3889H107.719C107.498 76.3889 107.238 76.3588 107.09 76.2009L90.7015 59.0649C89.965 58.2738 89.069 57.6008 88.001 57.561H76.17V100.865H93.6975C94.1025 100.865 94.3695 100.435 94.443 100.039C95.548 93.2349 101.072 88.0524 107.738 88.0524C114.404 88.0524 119.928 93.2349 121.033 100.039C121.106 100.474 121.336 100.865 121.741 100.865H123.055C125.155 100.865 126.999 98.9318 126.999 96.7163V93.7886C127 93.353 126.565 92.8632 126.123 92.8632ZM99.394 76.3883H81.4285C80.9865 76.3883 80.552 75.9216 80.552 75.4468V63.2091C80.552 62.7343 80.9865 62.2676 81.4285 62.2676H87.125C87.346 62.2676 87.7925 62.6248 87.9765 62.7832L99.8355 74.9742C100.278 75.5677 100.094 76.3883 99.394 76.3883ZM43.98 92.2342C38.382 92.2342 33.852 97.1003 33.852 103.114C33.852 109.127 38.382 113.993 43.98 113.993C49.578 113.993 54.108 109.127 54.108 103.114C54.108 97.1003 49.578 92.2342 43.98 92.2342ZM43.98 107.28C41.8535 107.28 40.1005 105.397 40.1005 103.113C40.1005 100.829 41.8535 98.9458 43.98 98.9458C46.1065 98.9458 47.8595 100.829 47.8595 103.113C47.8595 105.397 46.1065 107.28 43.98 107.28ZM73.103 72.0148V100.865H59.486H58.086C57.681 100.751 57.3495 100.474 57.276 100.039C56.171 93.2343 50.647 88.5149 43.981 88.5149C37.315 88.5149 31.7905 93.2338 30.686 100.039C30.6125 100.434 30.281 100.75 29.876 100.865H20.082C18.1185 100.751 16.5765 99.0408 16.5765 96.9317V83.9195H49.987C48.375 81.892 47.4 79.2634 47.4 76.3883C47.4 73.7195 48.2405 71.2629 49.65 69.3025C38.488 54.2939 22.707 33.5932 18.1965 26.575L15.552 44.7239L18.26 45.1031L16.6075 58.7239L14.6245 58.4462C14.5775 58.7674 14.532 59.0789 14.489 59.3716C18.1075 61.05 20.532 64.8666 20.532 69.1719C20.532 69.7252 20.49 70.2832 20.409 70.8477C19.6305 76.1381 15.398 79.9101 10.5565 79.9101C10.042 79.9101 9.522 79.865 9.002 79.7812H9C5.1045 79.1189 2.087 76.1214 1 72.3301L5.747 70.7671C6.2985 72.6813 7.8085 74.1911 9.7755 74.5219H9.773C10.0395 74.5671 10.3005 74.5864 10.562 74.5864C12.984 74.5864 15.134 72.6835 15.5155 70.0232C15.56 69.7343 15.5755 69.4534 15.5755 69.1757C15.5755 66.574 13.804 64.2672 11.33 63.8547C10.674 63.7451 10.097 63.3692 9.7075 62.794C9.321 62.2187 9.1615 61.5141 9.2635 60.8126C9.2635 60.8099 9.4675 59.428 9.7085 57.7592L8.1825 57.5455L9.835 43.9248L12.6005 44.312L15.748 22.7283C15.484 22.3046 15.283 21.9737 15.1865 21.7965C16.5765 21.5628 26.178 14 26.178 14C35.508 26.039 63.253 60.0172 73.103 72.0148Z" fill="white"/>
</svg>
