<svg width="128" height="128" viewBox="0 0 128 128" fill="none" xmlns="http://www.w3.org/2000/svg">
<path d="M76.8 89.6C86.6969 89.6 94.72 83.8692 94.72 76.8C94.72 69.7308 86.6969 64 76.8 64C66.9031 64 58.88 69.7308 58.88 76.8C58.88 83.8692 66.9031 89.6 76.8 89.6Z" fill="#78B86D"/>
<path d="M99.028 51.2002H96H85.3333H76.8H54.572C52.3573 59.0014 46.2013 65.1569 38.4 67.3722V79.3602V83.2002V86.2277C46.202 88.4425 52.36 94.5977 54.575 102.4H76.8H99.028C101.243 94.5987 107.399 88.4432 115.2 86.228V67.3727C107.399 65.1569 101.243 59.0014 99.028 51.2002ZM76.8 89.6002C66.9035 89.6002 58.88 83.8692 58.88 76.8002C58.88 69.7312 66.9035 64.0002 76.8 64.0002C86.696 64.0002 94.72 69.7312 94.72 76.8002C94.72 83.8692 86.696 89.6002 76.8 89.6002Z" fill="#B4DE7C"/>
<path d="M121.6 38.3999H104.533H102.4H96H89.6H76.8H49.0667H32C28.4655 38.3999 25.6 41.2654 25.6 44.7999V61.8666V76.7999V83.1999V89.5999V91.7332V108.8C25.6 112.334 28.4655 115.2 32 115.2H49.0667H49.0752H76.8H104.533H121.6C125.134 115.2 128 112.334 128 108.8V91.7332V61.8666V44.7999C128 41.2654 125.134 38.3999 121.6 38.3999ZM115.2 86.2274C107.399 88.4427 101.243 94.5982 99.028 102.4H76.8H54.575C52.3602 94.5974 46.202 88.4424 38.4 86.2277V83.1999V79.3599V67.3719C46.2012 65.1567 52.357 59.0012 54.572 51.1999H76.8H85.3332H96H99.028C101.243 59.0012 107.399 65.1567 115.2 67.3719V86.2274Z" fill="#78B86D"/>
<path d="M25.6 76.7998V61.8666V44.7998C25.6 41.2653 28.4655 38.3998 32 38.3998H49.0667H76.8H89.6H96H102.4V19.1998C102.4 15.6653 99.5345 12.7998 96 12.7998H6.4C2.8655 12.7998 0 15.6653 0 19.1998V83.1998C0 86.7338 2.8655 89.5998 6.4 89.5998H25.6V83.1998V76.7998Z" fill="#598951"/>
<path d="M58.88 76.8002C58.88 69.7312 66.9035 64.0002 76.8 64.0002V51.2002H54.572C52.3573 59.0014 46.2013 65.1569 38.4 67.3722V79.3602V83.2002V86.2277C46.202 88.4425 52.36 94.5977 54.575 102.4H76.8V89.6002C66.9035 89.6002 58.88 83.8692 58.88 76.8002Z" fill="#A8DA64"/>
<path d="M25.6 108.8C25.6 112.334 28.4655 115.2 32 115.2H49.0667H49.0752H76.8V102.4H54.575C52.3602 94.5974 46.202 88.4424 38.4 86.2277V83.1999V79.3599V67.3719C46.2012 65.1567 52.357 59.0012 54.572 51.1999H76.8V38.3999H49.0667H32C28.4655 38.3999 25.6 41.2654 25.6 44.7999V61.8666V76.7999V83.1999V89.5999V91.7332V108.8Z" fill="#69A15F"/>
<path d="M58.88 76.8C58.88 83.869 66.9035 89.6 76.8 89.6V64C66.9035 64 58.88 69.731 58.88 76.8Z" fill="#69A15F"/>
</svg>
