<svg width="48" height="48" viewBox="0 0 48 48" fill="none" xmlns="http://www.w3.org/2000/svg">
<path d="M42.183 13.7212C40.3051 10.423 37.7579 7.81183 34.5407 5.88706C31.3229 3.96219 27.8102 3 23.9998 3C20.1899 3 16.676 3.96248 13.459 5.88706C10.2414 7.81173 7.69431 10.423 5.81643 13.7212C3.93884 17.0193 3 20.6209 3 24.5258C3 29.2165 4.33505 33.4345 7.00581 37.1808C9.67629 40.9275 13.1262 43.52 17.3551 44.9587C17.8474 45.0524 18.2118 44.9865 18.4487 44.7628C18.6858 44.5387 18.8041 44.2582 18.8041 43.9222C18.8041 43.8662 18.7994 43.3618 18.7903 42.4087C18.781 41.4555 18.7766 40.624 18.7766 39.9145L18.1476 40.026C17.7466 40.1013 17.2408 40.1333 16.63 40.1242C16.0196 40.1155 15.3859 40.0499 14.7297 39.928C14.0733 39.8071 13.4628 39.5268 12.8976 39.0877C12.3328 38.6486 11.9318 38.0738 11.6948 37.3642L11.4213 36.7192C11.2391 36.2898 10.9522 35.8128 10.5602 35.2899C10.1682 34.7666 9.77178 34.4118 9.37079 34.2249L9.17934 34.0845C9.05177 33.9911 8.9334 33.8785 8.82393 33.7478C8.71456 33.6171 8.63268 33.4864 8.57799 33.3554C8.52321 33.2244 8.56861 33.1169 8.71466 33.0325C8.86071 32.9482 9.12465 32.9073 9.50764 32.9073L10.0543 32.991C10.4189 33.0659 10.8699 33.2896 11.4078 33.6636C11.9455 34.0372 12.3875 34.523 12.7339 35.1207C13.1534 35.887 13.6587 36.4709 14.2515 36.8727C14.8437 37.2746 15.4408 37.4751 16.0423 37.4751C16.6437 37.4751 17.1632 37.4284 17.6009 37.3354C18.0381 37.242 18.4482 37.1015 18.8312 36.9148C18.9953 35.6623 19.442 34.7001 20.1709 34.0275C19.132 33.9156 18.1979 33.747 17.3682 33.5229C16.5391 33.2985 15.6822 32.9343 14.7982 32.4293C13.9138 31.9249 13.1801 31.2987 12.5969 30.5516C12.0137 29.8041 11.535 28.8228 11.1616 27.6085C10.788 26.3937 10.6012 24.9924 10.6012 23.4042C10.6012 21.1428 11.3214 19.2184 12.7615 17.63C12.0869 15.9298 12.1505 14.0239 12.9527 11.9124C13.4814 11.744 14.2654 11.8704 15.3043 12.2907C16.3434 12.7111 17.1042 13.0713 17.5875 13.37C18.0707 13.6685 18.4579 13.9215 18.7496 14.1267C20.4453 13.641 22.1951 13.3981 23.9996 13.3981C25.8041 13.3981 27.5544 13.641 29.2501 14.1267L30.2891 13.4543C30.9996 13.0056 31.8387 12.5945 32.8042 12.2208C33.7704 11.8472 34.5091 11.7443 35.0198 11.9127C35.8398 14.0243 35.9129 15.9301 35.2381 17.6303C36.6781 19.2187 37.3986 21.1435 37.3986 23.4045C37.3986 24.9927 37.211 26.3984 36.838 27.6225C36.4645 28.8469 35.9817 29.8272 35.3895 30.5657C34.7966 31.304 34.0582 31.9253 33.1742 32.4296C32.29 32.9342 31.4329 33.2984 30.6037 33.5228C29.7741 33.7472 28.8401 33.9159 27.8012 34.028C28.7487 34.8686 29.2226 36.1954 29.2226 38.0078V43.9214C29.2226 44.2574 29.3366 44.5379 29.5647 44.762C29.7925 44.9857 30.1523 45.0516 30.6446 44.9578C34.8741 43.5193 38.324 40.9267 40.9944 37.18C43.6645 33.4337 45 29.2157 45 24.525C44.999 20.6206 44.0597 17.0193 42.183 13.7212Z" fill="white"/>
</svg>
