<svg width="64" height="64" viewBox="0 0 64 64" fill="none" xmlns="http://www.w3.org/2000/svg">
<g clip-path="url(#clip0_3:4)">
<path d="M14.5685 31.0525C14.7307 31.0525 14.8952 31.0145 15.0491 30.9345C15.56 30.6685 15.7586 30.0389 15.4926 29.528L10.1662 19.295C9.98662 18.95 9.63012 18.7338 9.24124 18.7338H5.60812C5.03224 18.7338 4.56537 19.2006 4.56537 19.7765C4.56537 20.3524 5.03224 20.8193 5.60812 20.8193H8.60824L13.6425 30.491C13.8284 30.848 14.192 31.0525 14.5685 31.0525Z" fill="#FFD117"/>
<path d="M49.247 31.0525C49.0847 31.0525 48.9202 31.0145 48.7663 30.9345C48.2555 30.6685 48.0568 30.0389 48.3228 29.528L53.6493 19.295C53.829 18.95 54.1855 18.7338 54.5743 18.7338H58.2072C58.7831 18.7338 59.25 19.2006 59.25 19.7765C59.25 20.3524 58.7831 20.8193 58.2072 20.8193H55.2071L50.1728 30.491C49.987 30.848 49.6233 31.0525 49.247 31.0525Z" fill="#FFD117"/>
<path d="M47.6509 14.8655C46.9446 13.5089 45.1156 12.3989 43.5861 12.3989H20.2295C18.7 12.3989 16.871 13.5089 16.1648 14.8655L10.8383 25.0984L13.7613 32.0504H50.0541L52.9771 25.0984L47.6509 14.8655Z" fill="#FFB367"/>
<path d="M14.7265 30.3435H49.0891L50.9215 25.666L45.8008 15.8286C45.4542 15.1629 44.3366 14.4846 43.5861 14.4846H20.2295C19.479 14.4846 18.3612 15.1629 18.0147 15.8286L12.8941 25.666L14.7265 30.3435Z" fill="white"/>
<path d="M13.1248 46.0046H2.15302V51.601H13.1248V46.0046Z" fill="#6D6D6D"/>
<path d="M61.6619 46.0046H50.6901V51.601H61.6619V46.0046Z" fill="#6D6D6D"/>
<path d="M57.1426 23.9475L49.0894 26.1721H14.7268L6.67352 23.9475C2.84289 23.9475 -0.154732 27.0745 0.00651786 30.8995L9.00527 33.964L0.263768 36.0496L0.762893 46.005H63.0533L63.5524 36.0496L54.8109 33.964L63.8096 30.8995C63.9709 27.0746 60.9731 23.9475 57.1426 23.9475Z" fill="#FFD117"/>
<path d="M64 30.8996C64 30.9051 64 30.9108 64 30.9163L63.7427 36.0496H50.83C50.83 33.2063 53.1352 30.8995 55.9801 30.8995H64V30.8996Z" fill="#FF7039"/>
<path d="M13.1761 36.0505H0.263476L0.00622559 30.9171C0.00622559 30.9116 0.00622559 30.906 0.00622559 30.9005H8.0261C10.8708 30.9005 13.1761 33.2071 13.1761 36.0505Z" fill="#FF7039"/>
<path d="M43.4739 39.047H20.3416V43.9204H43.4739V39.047Z" fill="#FFF0B2"/>
<path d="M37.6907 36.0496H26.1245C25.5486 36.0496 25.0817 35.5827 25.0817 35.0069C25.0817 34.431 25.5486 33.9641 26.1245 33.9641H37.6907C38.2666 33.9641 38.7335 34.431 38.7335 35.0069C38.7336 35.5827 38.2667 36.0496 37.6907 36.0496Z" fill="#FFB367"/>
</g>
<defs>
<clipPath id="clip0_3:4">
<rect width="64" height="64" fill="white"/>
</clipPath>
</defs>
</svg>
